<svg id="Layer_1" data-name="Layer 1" xmlns="http://www.w3.org/2000/svg" viewBox="0 0 102.29 100.3"><defs><style>.cls-1{fill:#fff;stroke-width:3.28px;}.cls-1,.cls-2{stroke:#000;stroke-miterlimit:10;}.cls-2{stroke-width:1.74px;}</style></defs><title>phobo_svg</title><path d="M45.77,31.32c6.09-.84,13.41-1.55,18.94,1.72a10.61,10.61,0,0,1,5.11,7.07A13.27,13.27,0,0,1,68,49a17.69,17.69,0,0,1-8,7.36l1.74,1c-.32-7-.72-14.85-5.19-20.65-3.51-4.55-10.07-7.75-15.76-5.59s-7.92,8.66-6.71,14.3C35.37,51.2,41,56.43,47.17,56A9.15,9.15,0,0,0,55.25,44.9a6.84,6.84,0,0,0-5.32-5.18,9.64,9.64,0,0,0-8.78,2.91c-4.54,4.7-5.61,13-3,18.88,2.43,5.41,9.31,8.81,14.83,5.76,4.49-2.48,5.22-9.36,1.37-12.79-5.07-4.49-11.88,1.36-11.86,7,0,6.49,6.17,12.25,12.25,13.5a9.33,9.33,0,0,0,8.15-1.73c2.66-2.33,3.48-6.5,4.18-9.79.76-3.57,1-7.34-.57-10.74A9.65,9.65,0,0,0,59.77,47c-5.53-1-9.62,4.24-10.23,9.24-.77,6.21,4.05,11.13,9.24,13.67a26.38,26.38,0,0,0,8.9,2.74c2.46.23,5.54-.17,7-2.4,1.78-2.67.12-5.93-2.5-7.26-3.42-1.74-7.17,0-10.31,1.54L50.13,70.31c-3.67,1.8-7.39,4-11.37,5-6.5,1.65-12-2.8-14.45-8.6-2.8-6.74-.8-14,2.39-20.23a107.46,107.46,0,0,1,5.87-9.71c.6-.9-.38-1.9-1.31-1.7-6,1.26-9.87,6.67-11.27,12.35a25.37,25.37,0,0,0,3,18.39A28.4,28.4,0,0,0,37.73,78.51,18.09,18.09,0,0,0,49,79.2a13.29,13.29,0,0,0,7.48-6c3.57-6,2-13.61-2.8-18.47-4.42-4.46-12.9-6.82-17.24-.94s-2.92,14.46.11,20.46c3.11,6.17,8.87,11.57,15.78,13s13.2-1.91,17.12-7.53c4.37-6.29,5.4-14.78,5.55-22.25.06-3.13-.26-6.6-2.12-9.23a8.67,8.67,0,0,0-7.7-3.72c-6.85.45-11.93,6.37-14.76,12.11a35,35,0,0,0-3.32,11,46.77,46.77,0,0,0-.27,5.55,4.76,4.76,0,0,1-.4,2.33c-.53.88-1.63,1-2.56,1.09l-6.4,1a43.58,43.58,0,0,1-5.91.74c-1.72,0-3.44-.36-4.34-2A12.27,12.27,0,0,1,26.13,71a22.78,22.78,0,0,1,9-19c5.7-4.34,13.79-6.88,17.37-13.5,1.49-2.75,1.87-6.1-.1-8.73-1.69-2.27-4.54-3-7.27-2.93a21.11,21.11,0,0,0-16.25,9.76,9.58,9.58,0,0,0-.71,9.13c1.43,3,4.51,5.06,7.33,6.62C41,55.38,47.77,57,54,55.56A15.48,15.48,0,0,0,66,42.69a16.74,16.74,0,0,0-7.42-16.57,19.23,19.23,0,0,0-9.26-3c-3.22-.21-7,.31-9.55,2.4-5.38,4.35-1,12,3.73,14.74C54.23,46.4,69.62,40,71.39,27.39a19,19,0,0,0-5.23-16A16.64,16.64,0,0,0,50.07,7.62c-5.51,1.52-10.46,5.72-11.78,11.44a11.31,11.31,0,0,0,1.42,9,7.44,7.44,0,0,0,6.94,3.14,6.61,6.61,0,0,0,5.78-4.08c1.1-3.17-.87-6.29-3.24-8.25-4.89-4-12-5.87-18.29-5.58S18.16,16.4,14.74,22c-3.23,5.26-3.34,13,2.34,16.64,4.52,2.88,12.77,2,13.45-4.51.37-3.54-2.88-5.51-6-6a15,15,0,0,0-9.22,1.62C9.89,32.63,4.88,41,10,46.44c2,2.1,5.41,3.11,8,1.57a5.6,5.6,0,0,0,2.16-6.58c-1-2.81-4.07-3.65-6.64-2.39-3.16,1.55-5,5.2-6.2,8.32A24.9,24.9,0,0,0,5.8,58.27c.27,3.32,1,7.4,3.63,9.74,2.06,1.85,5.81,2.39,7.65-.08,1.53-2.05.69-5.45-1.91-6.1a1.15,1.15,0,0,0-1.13.3c-4,4.9-3.8,12.18-.25,17.3a12.72,12.72,0,0,0,7.28,5.27c3.25.82,7.44.25,9.33-2.85,1.51-2.47,1-6.36-1.61-7.87-3.44-2-7.11,1.17-8.26,4.32-2.87,7.94,4.77,15.85,11,19.45,3.88,2.22,8.68,3.47,13,1.72,3.75-1.54,6.79-5,6.66-9.2l-.85,1.12c6.35-1.93,12.06,6.38,18.51,2.9,3.3-1.77,4.21-8.17-.17-9.21a1.17,1.17,0,0,0-1.42,1.43l2.27,8.81.81-1.43a23.44,23.44,0,0,1-25-6.24l-.82,2a93.33,93.33,0,0,0,12.56-1.58c2.63-.52,6.12-1.54,6.77-4.57.73-3.39-2.82-5.93-5.48-7.15A16.93,16.93,0,0,0,48.71,75,15.85,15.85,0,0,0,35.94,87.91c-.49,3-.27,6.37,1.74,8.77a5.62,5.62,0,0,0,7.5,1.06,8.5,8.5,0,0,0,3.7-8.55c-.66-4-3.54-7.16-6.18-10l-1.13,1.94c7.78,1.06,13.7,7.1,21.39,8.52,3.3.61,6.86.48,9.8-1.28s4.49-4.55,5.52-7.6c1.21-3.58,1.66-7.43,3.29-10.87l-1.82.24,4,5,.52-1.94a96.54,96.54,0,0,1-21.84,5.27l.31,2.28A99.46,99.46,0,0,0,89.35,69.47c3.2-2,6.27-5,5.94-9.14a5.65,5.65,0,0,0-2.42-4.44,2.67,2.67,0,0,0-3.94,1.4c-1.71,3.94,1.82,8.39,5.35,9.73a1.16,1.16,0,0,0,1.31-.53c4.51-9-1.2-21.28-11.14-23.4a1.17,1.17,0,0,0-1.31.53c-2.46,5.73,1.24,13.11,7.55,14.09a1.2,1.2,0,0,0,1.43-.81A34.76,34.76,0,0,0,77.86,20.05a1.17,1.17,0,0,0-1.7.69c-1.4,3.37-2,7.28-.37,10.7a8.13,8.13,0,0,0,7,4.56c3.28,0,5.49-2.49,6.41-5.43a21.9,21.9,0,0,0,.57-10.75c-.74-3.2-3.14-6.22-6.53-6.78-3.2-.52-5.85,1.61-7.18,4.37-3,6.25-1.62,14.08,1,20.19,3.39,7.84,9.29,14.46,15.45,20.27l.23-1.82a61.92,61.92,0,0,1-24.1,9c-4,.58-8.53.95-12.12-1.33a11.76,11.76,0,0,1-4.78-7.15,22.77,22.77,0,0,1-.23-9.62c.28-1.62.83-3.14,1.23-4.73s.25-3.55-1.38-4.56c-2.88-1.77-7.2-1.82-10.44-1.36A19.7,19.7,0,0,0,25,62.39c.22.63,1.07,1.18,1.7.69,4.42-3.35,3.71-10.93-1.52-13.12A8.65,8.65,0,0,0,13.47,57.8a10,10,0,0,0,4.59,8.37,1.18,1.18,0,0,0,1.71-1.31A20.45,20.45,0,0,0,1.16,48.69,1.17,1.17,0,0,0,0,49.85c-.08,2.84,2.17,4.94,4.81,5.56a6.69,6.69,0,0,0,7.32-2.69c1.83-2.86,1.38-6.64-.25-9.48-1.37-2.38-5.22-6-7.9-3.22A1.17,1.17,0,0,0,4.49,42c7.61,2.66,16.84,1.37,22.9-4.16A17.17,17.17,0,0,0,30.9,17.55,14.23,14.23,0,0,0,22.1,10a1.17,1.17,0,0,0-1.31,1.7A26.73,26.73,0,0,0,31.36,23.34c4,2.37,10.58,5.06,14.85,1.92,4-2.91,2.72-8.42.13-11.81C43.22,9.36,37.05,6.85,32,8.57c-4.74,1.62-8,7.74-4.88,12.22l1.59-1.58a9.41,9.41,0,0,0-9.87,1.28c-3,2.3-4.51,5.92-5.31,9.5a1.19,1.19,0,0,0,.53,1.31c6.29,3.31,14.05,1.3,18.67-3.88a21.14,21.14,0,0,0,4.69-9.1c.36-1.49.27-3.62,1.29-4.85,1.18-1.42,3.74-.57,5.25-.3l15.12,2.69a1.2,1.2,0,0,0,1.31-.53c2.37-4.21-3.55-9.09-7.19-5.82a5.68,5.68,0,0,0-1.45,5.72A5.27,5.27,0,0,0,56.55,19a6.78,6.78,0,0,0,5.91-2.84c1.32-1.91,1.48-4.89-.71-6.24-1.82-1.12-4.3-.47-5.9.73A7.71,7.71,0,0,0,53.11,17c.16,5.7,4.81,9.76,10.23,10.5,4.88.66,11.35-1.39,12.66-6.76a7,7,0,0,0-2-6.51c-1.29-1.21-4.77-2.76-5.87-.58A8.33,8.33,0,0,0,68.26,21c.5,1,1.28,2.33,2.52,2.25a4.87,4.87,0,0,0,2.87-1.3,7.25,7.25,0,0,0,2-7c-.73-2.94-3.25-5.11-5.78-6.54-4.42-2.49-11.5-4.41-15,.52l2,1.17c1.84-2.91.63-6.72-2-8.73C51.8-1,47.55,0,44.87,2.51c-6.54,6.23-1.78,18,5.36,21.54,3.89,1.95,8.93,1.58,12-1.76l-1.94-1.13A28,28,0,0,0,62.1,41.09,27.53,27.53,0,0,0,88.07,56a1.2,1.2,0,0,0,1.12-.85c.39-1.48,1.24-3.07.36-4.47a8.79,8.79,0,0,0-2.88-2.78A9,9,0,0,0,79,47.16a1.18,1.18,0,0,0-.7,1.7,14.78,14.78,0,0,0,9.29,8.21A1.17,1.17,0,0,0,89,56.26a9.92,9.92,0,0,0-6.84-11.71l-.3,2.28c3.27-.1,5.74-2.53,6.8-5.5,1.38-3.85-.11-8-1.46-11.64a1.19,1.19,0,0,0-1.12-.85c-5.41.47-9.2,5.07-10.18,10.21C74.76,45,77.6,50.57,82,54.5a35.5,35.5,0,0,0,9.42,5.83A1.17,1.17,0,0,0,93,58.74a7.77,7.77,0,0,0-14.11.32c-3,6.65,2.57,13.27,9.4,13.39a1.17,1.17,0,0,0,.82-2c-1.71-1.74-4.12-3.42-6.7-2.88A4.56,4.56,0,0,0,78.8,72.2c.49,4.48,7.82,2.49,6-1.41a1.15,1.15,0,0,0-1-.58c-6.88.07-9.56,10.63-2.58,13a7.39,7.39,0,0,0,8-2.34c1.83-2.44,1.36-7.42-2.6-7.06-4.24.38-5.67,6.26-5.67,9.68a14.63,14.63,0,0,0,.34,3.09c.22,1,.67,2,.83,3.08a1.88,1.88,0,0,1,0,1.1c-.31.48-1,.37-1.53.35-1.23-.06-2.46-.15-3.67-.32-3.79-.5-8.79-2.52-8.7-7.13,0-1.81,1.54-3.17,1.62-5a2.37,2.37,0,0,0-.75-2,2.21,2.21,0,0,0-2.27-.25c-7.2,2-11,11.12-7.52,17.63l1.83-1.41a26.52,26.52,0,0,0-15.71-9c-4.48-.77-11.9-.67-13.16,5a1.2,1.2,0,0,0,.54,1.31c3.5,1.77,6-3.22,6.43-6a7.71,7.71,0,0,0-4.12-8.22,6.46,6.46,0,0,0-8.16,1.73,6.15,6.15,0,0,0,.47,7.84c1,1,2.31-.25,1.82-1.4a28.44,28.44,0,0,0-23-16.81,1.17,1.17,0,0,0-1,1.75c2.53,3.66,8.41,3.24,10.83-.37C19,64.13,15.4,58.29,10.8,57.14a1.22,1.22,0,0,0-1.31.54C6.27,62,9.09,69.23,14.9,68.82a6.68,6.68,0,0,0,5.65-3.7,6,6,0,0,0-2.07-7,5.32,5.32,0,0,0-7.5.75c-1.63,2.09-1.34,5.25.12,7.37,2.68,3.88,8.41,4.75,12.54,2.9,6.25-2.8,8.05-10.71,8.08-16.89l-1.47,1.12,11.58,3.43.31-2.28c-5.66-.13-12.62,5-10.72,11.34,1.43,4.77,8.33,7.75,12.11,3.78a1.21,1.21,0,0,0,.18-1.4A6.78,6.78,0,0,0,37,64.59a7.57,7.57,0,0,0-6.63,5.15,10.89,10.89,0,0,0,1.26,9.41,18.37,18.37,0,0,0,8.47,6.56l.59-2.16c-2.75,0-5.86.49-8.11,2.19A5.08,5.08,0,0,0,31.61,93c3.64,5.21,12,6.56,16,1.09a8.71,8.71,0,0,0,.82-9.34l-1.31,1.71a114.43,114.43,0,0,0,18,5c4.67.89,10.09,2.22,14.78.72,3.49-1.12,6.31-4.73,4.28-8.38A7.68,7.68,0,0,0,74.25,81c-4.56,2.53-5.32,8.65-4.23,13.25L72,93.15c-5.88-5.72-14.23-12.47-22.88-8.8a1.17,1.17,0,0,0-.53,1.31c1.9,7.74,12.39,6.64,18,4.51A35.75,35.75,0,0,0,83.93,75.58a35,35,0,0,0,5.33-22.1,11.81,11.81,0,0,0-1.56-5.42c-.9-1.33-2.41-2.67-4.14-2.26-2,.48-2.75,2.7-2.77,4.54a8.92,8.92,0,0,0,2,5.41A19,19,0,0,0,87.46,60a15.51,15.51,0,0,0,6.29,2.79c3.91.5,7-2.35,8.15-5.94,1.21-4-.5-8-3.14-11a22.28,22.28,0,0,0-2.37-2.29C95.75,43,94.78,42,93.9,41.93c-1.57-.06-2.53,1.7-2.53,3.06a3.21,3.21,0,0,0,2.74,3.24,4.55,4.55,0,0,0,4.52-2.45c2.07-4-.8-9.55-3.36-12.6C93,30.42,88.16,27.77,85,30.77c-2.06,1.93-2.57,6.1.29,7.56,4.06,2.07,7.24-3,7.42-6.46A9.07,9.07,0,0,0,87.26,23a8.55,8.55,0,0,0-9.56,2.69,7.5,7.5,0,0,0,.81,9.68,7,7,0,0,0,4.63,2.16,1.13,1.13,0,0,0,1-.58,15.06,15.06,0,0,0-5.27-18.75c-1.45-.92-3.2-1.42-4.67-.26A4.56,4.56,0,0,0,72.66,22a6.16,6.16,0,0,0,3.1,4.18,9.24,9.24,0,0,0,2.63,1.35c1,.21,2.47-.4,3.48-.61a1.18,1.18,0,0,0,.86-1.12c0-7.36-3.57-15.67-10.6-18.85-2.88-1.3-6.4-1.7-9.15.13a9,9,0,0,0-3.63,8.67c.5,4.23,3.43,7.61,6.63,10.18a1.21,1.21,0,0,0,1.41.18,8.91,8.91,0,0,0,4.32-7.34,10.62,10.62,0,0,0-3.61-8.25,14.11,14.11,0,0,0-9.52-3.75,9.55,9.55,0,0,0-7.66,4.3c-4,5.72-2,12.86,1.77,18.09,4,5.57,9.63,11.18,16.17,13.6,6.24,2.32,14.61.79,17.76-5.64a1.21,1.21,0,0,0-.18-1.41c-2.43-2.67-6.12-2.45-9.17-1a16.34,16.34,0,0,0-7.41,7.81,25.68,25.68,0,0,0,.07,22.88,1.17,1.17,0,0,0,1.83.23,10.74,10.74,0,0,0-.36-13.89A1.18,1.18,0,0,0,70,51.54c-5.58,4.11-6.28,13.09-1.09,17.84a1.17,1.17,0,0,0,1.82-.23c1.91-3.5.83-7.79-1.82-10.59s-7-4.43-10.87-5.1c-3.38-.58-7.2-.59-10.25,1.19-1.12.66-3.21,2.24-3.23,3.7,0,1.3,1.31,2.64,2.34,3.23a7.46,7.46,0,0,0,8.1-.84c3-2.45,3.07-7,1.83-10.36-1.37-3.75-4.18-7.41-7.91-9a8.55,8.55,0,0,0-10.06,2.29C34.14,49,33.48,60.1,40.45,64.05c2.9,1.64,6.86,1.73,9.51-.45a6.34,6.34,0,0,0,1-8.44c-1.73-2.62-5.18-3.69-7.73-1.5a6.34,6.34,0,0,0-.84,8.44c2.23,2.77,6.6,2.95,9.42,1,3.22-2.2,4.06-6.66,2.77-10.18s-5.51-6.69-8.88-3.6c-2.8,2.57-3.43,7.61-3.18,11.18a18.94,18.94,0,0,0,4.41,11,7.65,7.65,0,0,0,5.17,2.94c2.09.1,3.63-1.26,5.08-2.56.85-.75,3.21-2.46,4-.72l-.11-.9a8.58,8.58,0,0,1-3.7,4.33l1.17,2a40.91,40.91,0,0,1,19.61-6.59l-.82-2c-1.63,1.45-4.28.64-5.55-.91-1.71-2.08-1.49-5.11-.87-7.55l-.81.81c4.78-1.14,9.51,2.23,13.81,3.79s9.47,1.47,11.64-3.13A9.17,9.17,0,0,0,91.35,49.2c-5.08-2.42-11.19-.27-14.67,3.86C72.49,58,71.46,64.74,68,70.13l1.31-.53A60.53,60.53,0,0,1,43,52.91a58.7,58.7,0,0,1-8.87-12.52c-2.61-5-4.87-11.35-2-16.68,2.67-4.92,8.37-7.3,13.33-9.22A1.18,1.18,0,0,0,46,12.55c-4.33-4.09-11.06-3-15.44.43-5.38,4.23-6.9,11.62-8.14,18l1.43-.81a7.29,7.29,0,0,1-4.08-4.46L18,27c5.34,4,15,5.7,19.25-.84,2.92-4.51,1.7-12.22-4.1-13.65a1.16,1.16,0,0,0-.61,2.23c5.22,1.31,11.06,2.72,16.24.48,3.91-1.68,7.16-5.4,6.95-9.84l-2.28.31a7,7,0,0,0,6.46,5.15c1.79,0,3.82-1.44,5.51-.57a12.76,12.76,0,0,1,2.48,2.05c.77.7,1.54,1.42,2.3,2.13C76.67,20.49,82.8,26.87,89,33.18V31.54C84.36,36.37,83.58,44,86.51,49.86a14.36,14.36,0,0,0,2.81,3.89c1.54,1.5,3.17,2.28,3.48,4.59s.32,4.69.46,7l.49,7.78c.09,1.49,2.42,1.5,2.32,0-.29-4.67-.52-9.35-.88-14a7.33,7.33,0,0,0-2-5.09,28.7,28.7,0,0,1-3.56-3.41c-3.72-5.12-3.45-12.85,1-17.45a1.17,1.17,0,0,0,0-1.64c-6-6.08-11.88-12.23-18.06-18.09C71.08,12,69.6,10.6,68,9.28a5.37,5.37,0,0,0-4.48-1.55c-1.65.25-3.08,1.1-4.77.55a4.59,4.59,0,0,1-3.06-3.23,1.17,1.17,0,0,0-2.28.31c.18,3.77-2.83,6.81-6.21,8-4.55,1.59-9.56.27-14-.85l-.61,2.23C37,15.82,37.43,22,35.13,25.19c-1.61,2.24-4.59,3.09-7.22,3A15.23,15.23,0,0,1,19.2,25c-.81-.62-2,.4-1.7,1.31a9.8,9.8,0,0,0,5.69,6.08,1.18,1.18,0,0,0,1.43-.82c1.09-5.56,2.26-11.93,6.52-16,3.35-3.24,9.46-4.83,13.18-1.32l.51-1.94C40,14.14,34.74,16.34,31.42,20.57,27.6,25.44,28,31.71,30.09,37.23,34.2,47.84,42.37,57.06,51.62,63.51a61.89,61.89,0,0,0,17.05,8.32A1.19,1.19,0,0,0,70,71.3c2.75-4.26,4-9.26,6.39-13.68s6.81-8,12.08-7c4.15.84,7,5.5,5,9.49s-7,2.65-10.21,1.3c-4.34-1.79-8.86-4.44-13.72-3.28a1.16,1.16,0,0,0-.81.82c-.88,3.42-.88,7.68,1.91,10.27a6.3,6.3,0,0,0,8.39.45,1.18,1.18,0,0,0-.83-2,43.43,43.43,0,0,0-20.78,6.91,1.16,1.16,0,0,0,1.17,2c2-1.18,4.27-3.35,4.77-5.72s-2.91-3-4.47-2.6a6.34,6.34,0,0,0-2.72,1.47c-1,.84-2,2.09-3.34,2.34-2.84.52-5.13-3.2-6.2-5.31A17,17,0,0,1,44.8,59c0-2.48.51-5.69,2.17-7.65,2.34-2.76,5.16.94,5.69,3.25s-.13,5.43-2.43,6.77c-1.85,1.08-4.72,1-6.1-.8a4,4,0,0,1,.63-5.18c1.65-1.38,3.62-.22,4.49,1.42a3.93,3.93,0,0,1-1.06,5.24,6.38,6.38,0,0,1-6.29.15,8.38,8.38,0,0,1-4.07-6.13c-.85-4.5.79-11.33,5.7-12.93,6-2,11.69,6.06,11.76,11.33,0,2.52-1.15,4.75-3.67,5.42-1.77.47-4.16.14-4.79-1.85l-.12.9c2.55-4.4,8.82-3.87,13-2.72,2.8.77,5.69,1.91,7.67,4.12,1.83,2,2.69,5.14,1.33,7.64l1.82-.24c-4-3.65-3.82-10.93.62-14.19l-1.4-.18A8.36,8.36,0,0,1,70.12,64l1.82.24a23.17,23.17,0,0,1-.55-19.5,15.49,15.49,0,0,1,5.84-7.36c2.32-1.42,5.5-2.26,7.57,0L84.62,36c-2.22,4.53-7.79,6.28-12.52,5.34-5.9-1.17-10.61-5.55-14.54-9.84-3.7-4-7.54-9.42-6.32-15.21a9.5,9.5,0,0,1,3.63-5.95c2.55-1.76,5.88-1.35,8.56-.1a10,10,0,0,1,5.81,6.54,6.84,6.84,0,0,1-3,7.39l1.4.18c-3-2.38-6-5.56-6-9.6C61.53,11.08,64,8,67.75,8.17c3.6.17,6.86,2.66,8.87,5.51a21,21,0,0,1,3.79,12.13l.85-1.12-2.87.61.89.12c-1.82-.85-5.35-2.47-4.11-5.07,1.09-2.28,4.29,1.14,5.15,2.19a12.79,12.79,0,0,1,1.82,13.22l1-.57c-4.11-.31-6-5.88-3.1-8.68a6,6,0,0,1,9.76,2.07,6.82,6.82,0,0,1-.21,6c-.55.93-1.65,2.05-2.85,1.86a1.41,1.41,0,0,1-1.16-1.46,2.89,2.89,0,0,1,2.83-3.14c2.55,0,4.72,2.15,6,4.12,1.44,2.16,3.14,5.54,2.36,8.2-.26.92-1.6,2.45-2.71,1.71-.54-.36-.59-1.47.12-1.62l-.9-.12c3,2.23,6.32,5.38,6.66,9.37.27,3.13-1.82,7.14-5.36,7.06-2.16-.05-4.24-1.38-6-2.55a15.43,15.43,0,0,1-4.27-4c-1-1.41-1.72-3.43-1-5.12,1-2.28,2.84,1,3.14,2.08a25.21,25.21,0,0,1,.34,10.2,33.79,33.79,0,0,1-3.08,10,34.55,34.55,0,0,1-14,15,23.69,23.69,0,0,1-10.76,3.38c-3.23.07-7.37-.83-8.26-4.43l-.54,1.31C57.7,83.2,65.38,90,70.32,94.79a1.17,1.17,0,0,0,1.94-1.13c-.8-3.36-.52-7.71,2.35-10.07,2.23-1.83,6.43-1.18,7.67,1.61,1.48,3.37-3,5-5.44,5.22-4.27.4-8.8-.7-13-1.57a113.09,113.09,0,0,1-16.14-4.64c-1-.37-1.77.88-1.31,1.7a6.54,6.54,0,0,1-1.37,7.61c-2.16,2.13-5.53,2.24-8.17,1-2-1-5.58-4-3.51-6.4,1.63-1.92,4.95-2.24,7.28-2.24,1.07,0,1.69-1.69.59-2.16-4.8-2-10.08-6.12-9-12A5.46,5.46,0,0,1,36.55,67a4.61,4.61,0,0,1,5.15,2.41L41.88,68c-2.61,2.75-7.51.26-8.3-3-1.14-4.77,4.48-8.23,8.56-8.14a1.17,1.17,0,0,0,.31-2.28L30.87,51.1a1.17,1.17,0,0,0-1.47,1.12c0,4.19-.75,8.78-3.46,12.13a8.62,8.62,0,0,1-9.34,3A6.51,6.51,0,0,1,13,64.81c-1.14-1.77-1.13-4.63,1.14-5.46,1.91-.71,3.93.9,4.46,2.71a3.46,3.46,0,0,1-2.24,4.08c-4.61,2-7.42-3.8-4.83-7.29l-1.31.53c3.05.76,5.91,4.61,4,7.69-1.37,2.23-5.37,2.92-7,.59l-1,1.75a26.19,26.19,0,0,1,21,15.66L29,83.66A3.77,3.77,0,0,1,28.67,79a4,4,0,0,1,4.89-1.4A5.2,5.2,0,0,1,37,82.17a6.93,6.93,0,0,1-.62,3.36c-.29.66-1.46,2.87-2.41,2.39l.53,1.31c1-4.74,8.46-3.86,11.85-3.06a24.56,24.56,0,0,1,13.14,8.14c.87,1,2.43-.29,1.82-1.4-3-5.6.83-13.29,7-14.41l-.89-.12c.44.26-.78,2.26-1,2.69a6.41,6.41,0,0,0-.54,3.23,9,9,0,0,0,3.21,5.89A14.25,14.25,0,0,0,76.41,93c1.36.19,2.75.31,4.13.37a3.78,3.78,0,0,0,3.21-1c1.59-1.83.2-4.46-.23-6.44-.58-2.67-.31-6.23,1.39-8.48.59-.77,2-2.07,2.84-.92.61.83.17,2.19-.38,2.92a5,5,0,0,1-4.78,1.69c-5.16-.88-3.55-8.56,1.17-8.61l-1-.57c.14.3-.87.58-1.07.56-.93-.1-.56-1.24-.17-1.75,1.7-2.22,4.56-.08,6,1.34l.82-2c-5-.09-9.53-4.79-7.41-9.87a5.51,5.51,0,0,1,5-3.55A5.45,5.45,0,0,1,91,59.91l1.59-1.59c-6.13-2.67-13-7.13-14.44-14.16-1.1-5.29,2-12.48,7.93-13L85,30.31c1.1,2.93,2.42,6.22,1.75,9.4-.49,2.35-2.29,4.72-4.85,4.8a1.17,1.17,0,0,0-.31,2.28,7.56,7.56,0,0,1,5.21,8.86l1.43-.81a12.58,12.58,0,0,1-7.9-7.15l-.7,1.71a6.71,6.71,0,0,1,8.28,3.07l-.12-.9-.8,3,1.12-.85a25.56,25.56,0,0,1-21-9.12,25.45,25.45,0,0,1-4.6-22.83,1.17,1.17,0,0,0-1.94-1.12c-2.75,3-7.27,2.8-10.46.62a14.29,14.29,0,0,1-6-10.72C44,6.7,46.52,2.25,50.84,2.29c3.14,0,5.82,3.8,4,6.65-.81,1.28,1.15,2.36,2,1.17,2.79-3.91,9.35-1.24,12.5.71,1.94,1.2,4,3.07,4.16,5.51.13,1.89-.91,4.4-3,4.6l.82.34a6.1,6.1,0,0,1-1.06-6.74l-.69.54c2.07-.48,3.78,1.46,4.2,3.33.5,2.26-1,4.3-2.88,5.44a11.07,11.07,0,0,1-13.08-1.35C55.07,19.78,53.9,12.56,59,11.7c2.56-.43,2.44,2.36,1,3.74s-3.79,1.81-5.24.44-1.28-4,.41-4.94,4.22,1.46,3.23,3.22l1.31-.54L46.8,11.32c-3-.53-7.59-2.18-9.9.73a9.25,9.25,0,0,0-1.41,4.32,20.45,20.45,0,0,1-1.58,5.11A16.26,16.26,0,0,1,27,29.08a12.72,12.72,0,0,1-11.7.22l.53,1.31a14.94,14.94,0,0,1,3.85-7.74c2-2,5.27-2.94,7.92-1.66.95.46,2.3-.55,1.59-1.59-2.14-3.11,0-7.49,3.3-8.75,4-1.53,9.19.47,11.85,3.73,2,2.46,3.63,7.31-.05,9.16-1.95,1-4.36.51-6.35-.08a23.31,23.31,0,0,1-5.7-2.54,24.68,24.68,0,0,1-9.42-10.63l-1.31,1.71c6.24,1.75,9.38,8.54,8.92,14.65C29.85,34,23.84,39,17.18,40.45A22,22,0,0,1,5.1,39.72l.52,1.94c.77-.81,2.17.27,2.77.85a8.53,8.53,0,0,1,1.94,2.81c.89,2,1,4.66-.4,6.51-2,2.53-7.71,1.7-7.61-2L1.16,51A18.13,18.13,0,0,1,17.53,65.48l1.7-1.31a7.63,7.63,0,0,1-3.42-6.86,6.14,6.14,0,0,1,4.87-5.46,5.23,5.23,0,0,1,6.14,2.69c1,2.11.7,5.06-1.25,6.54l1.71.69A17.41,17.41,0,0,1,42.23,38.44a17.39,17.39,0,0,1,5.24.28,8.08,8.08,0,0,1,2.62.81c1,.71.51,2,.2,3-1.77,5.66-2.17,12.19.38,17.68a12.76,12.76,0,0,0,5.69,6c3.66,1.85,7.83,1.71,11.79,1.19A63.87,63.87,0,0,0,94,58.05a1.17,1.17,0,0,0,.24-1.82c-8.43-7.95-17.6-18.48-17.43-30.8,0-2.67.41-5.61,1.89-7.9a4.26,4.26,0,0,1,6.64-1c2.48,2.1,2.68,5.57,2.47,8.58-.18,2.47-.39,5.76-2.32,7.57-2.15,2-5.53.78-7.09-1.37-2.11-2.88-1.24-6.9,0-9.92l-1.71.69A32.39,32.39,0,0,1,89.88,56.28l1.43-.81c-4.66-.72-8.09-6.19-6.17-10.68l-1.31.53c8.4,1.8,13.63,12.24,9.75,20l1.31-.53A6.42,6.42,0,0,1,91.2,61a4.07,4.07,0,0,1-.2-2.64c.41-1.08,1.19-.09,1.54.54,2.08,3.85-2.18,7.3-5,9a101.78,101.78,0,0,1-25.4,10.6c-1.21.33-1,2.44.31,2.28a98.33,98.33,0,0,0,22.45-5.35,1.19,1.19,0,0,0,.52-1.94l-4-5a1.16,1.16,0,0,0-1.82.23,49.48,49.48,0,0,0-2.78,8.91c-.76,2.85-1.71,5.82-4,7.84-5.51,4.89-13.7.83-19.08-2.06-3.65-2-7.38-4-11.54-4.53a1.17,1.17,0,0,0-1.13,1.94c3.18,3.43,8,9,4.3,13.66-1.41,1.78-3.91,2.79-5.72.94-1.64-1.69-1.81-4.5-1.49-6.71a13.66,13.66,0,0,1,9.13-11A14.13,14.13,0,0,1,55,77.56c2.21.57,5.45,1.89,6.45,4.14,1.36,3.07-3.75,3.89-5.65,4.25a88.49,88.49,0,0,1-11.23,1.36,1.17,1.17,0,0,0-.82,2A25.73,25.73,0,0,0,71,96.13a1.2,1.2,0,0,0,.81-1.43l-2.28-8.8-1.42,1.42c1.4.34,1.46,2,1.08,3.12-.71,2.16-3,2.54-5,2.18-4.93-.87-9.12-5.07-14.41-3.46a1.19,1.19,0,0,0-.85,1.11c.09,3-1.87,5.38-4.42,6.7-2.9,1.5-6.23,1.17-9.19,0-5.57-2.18-11.59-7.47-12.8-13.56-.55-2.73.26-6.8,3.4-7.6,2.58-.67,3.61,2.4,2.79,4.38-1.13,2.72-4.9,2.86-7.3,2.17a10.37,10.37,0,0,1-5.56-4.11c-2.91-4.19-3.47-10.38-.1-14.49l-1.13.3a1.58,1.58,0,0,1,.82,2.23c-.65,1.34-2.6,1.12-3.67.52-2.66-1.49-3.32-5.61-3.58-8.35a23.29,23.29,0,0,1,1-9.34c.88-2.7,2.32-5.93,4.73-7.61,1-.69,2.43-1.19,3.46-.31a3,3,0,0,1,.78,2.7c-.41,2.65-3.3,3-5.32,1.84-2.77-1.64-3-5.11-1.95-7.87a11.79,11.79,0,0,1,5.48-6,12.42,12.42,0,0,1,8.12-1.39,5,5,0,0,1,3.4,1.82c.86,1.38.07,3.11-1,4.14-3.38,3.31-9.53,1-11.33-2.88-2.44-5.33.84-11.64,5.34-14.71S31.05,15.09,36.28,16A28.13,28.13,0,0,1,44,18.4c2.43,1.18,5.36,2.93,6.21,5.69.73,2.36-.84,4.22-3.07,4.74a5.24,5.24,0,0,1-5.64-2.18c-3-4.47-.5-10.52,3.2-13.69A15.93,15.93,0,0,1,58.15,9.59c10.15,2.27,14.18,15.53,8.53,23.78a16.87,16.87,0,0,1-12.75,6.85c-5.1.33-10.77-1.45-13.37-6.15-1.17-2.1-1.5-4.77.38-6.57,2.08-2,5.63-2.27,8.35-2.09,5.58.36,11.08,3.63,13.37,8.85,2.15,4.91,1.44,11.22-2.31,15.18S51,54.31,45.81,53.49a27.54,27.54,0,0,1-7.54-2.35,20.57,20.57,0,0,1-7-4.92c-4.45-5.35,1.15-11.5,5.74-14.33,3.37-2.08,10.21-4.76,13.4-1,2,2.34.87,5.46-.7,7.67-1.84,2.59-4.59,4.34-7.24,6-5.21,3.21-10.62,6.09-14.21,11.22a24.84,24.84,0,0,0-4.32,16.76c.3,2.65.91,5.59,3.36,7.08s5.38,1,8,.59l5.22-.8A41.83,41.83,0,0,0,46,78.55c2.9-.86,3.23-3.62,3.22-6.24A32.46,32.46,0,0,1,54.71,53.9c2.68-4,8.52-8.85,13.66-6.57,5.44,2.41,4.46,10.17,4,14.93-.62,6.51-2,13.44-6.61,18.37a13.83,13.83,0,0,1-15.5,3.58C44.55,82,40.05,76.94,37.78,71.31a21.38,21.38,0,0,1-1.62-8.9c.12-2.88.88-6.41,3.19-8.36,4.78-4,11.89.4,14.65,4.72,3.14,4.91,2.91,11.38-1.32,15.6-4.75,4.75-12.22,3.36-17.56.43-9.41-5.19-15.83-17-12.63-27.69,1.37-4.57,4.53-8.73,9.39-9.75l-1.31-1.71c-6.23,9.48-13.3,21.13-8.11,32.64,1.95,4.3,5.59,8.18,10.27,9.39,6.12,1.58,12-2.13,17.24-4.71l9.76-4.78c2.89-1.41,6.36-3.81,9.71-3.57,2.32.16,5.41,3.23,2.61,5.06-1.86,1.22-4.57.77-6.58.25-5-1.3-10.34-3.76-12.79-8.57-2-3.83-.59-9.39,3.3-11.51a5.53,5.53,0,0,1,6.35,1,10.17,10.17,0,0,1,3,7.8,30.27,30.27,0,0,1-2,9.7c-1,2.65-2.83,4.52-5.74,4.62-5.35.2-11-4.17-12.47-9.28a6.86,6.86,0,0,1,2.34-7.43,4.15,4.15,0,0,1,5.87.53,6.36,6.36,0,0,1,.94,5.51A5.55,5.55,0,0,1,49.35,66c-5.86.62-9.79-4.56-10.19-9.93S40.83,43.22,46.81,42c2.37-.49,5.07.36,6,2.76a6.94,6.94,0,0,1-.69,5.77c-2.74,4.7-8.92,3.46-12.34.25A11.62,11.62,0,0,1,37.38,37c2.61-4.74,8.32-5.18,12.75-2.81,5.2,2.77,7.53,8.2,8.5,13.77a73,73,0,0,1,.83,9.35,1.18,1.18,0,0,0,1.75,1c6.35-2.9,11.58-9.94,11.07-17.13a12.63,12.63,0,0,0-4.62-8.92,18.69,18.69,0,0,0-9.77-3.69,50.26,50.26,0,0,0-12.73.49c-1.48.21-.85,2.44.61,2.24Z"/><circle class="cls-1" cx="59.44" cy="39.13" r="9.96"/><circle class="cls-1" cx="82.86" cy="39.13" r="9.43"/><path d="M58.12,38.45a1.28,1.28,0,1,0,2-1,1.54,1.54,0,0,0-2.14.91,1.59,1.59,0,0,0,0,1.41,1.28,1.28,0,0,0,1.09.68,2,2,0,0,0,1.36-.81,5.34,5.34,0,0,0,.84-1.21L60,38.13a6.23,6.23,0,0,0,.77,2.59,4.77,4.77,0,0,1,.25.43l0,.14s0,0,0,0-.08.07,0,0-.14.06-.06,0l-.2.06a3.47,3.47,0,0,1-.55.08,2.32,2.32,0,0,1-1.07-.11.87.87,0,0,1-.51-.54.3.3,0,0,1,0-.1v0s-.16.18-.17.23l.12,0,.3.08a3.68,3.68,0,0,1,.79.49l.51.46a2.18,2.18,0,0,0,.22.21c.07,0,0-.05,0-.08a.33.33,0,0,1,0-.17c0-.09,0,0,0,0s.06-.07,0,0l-.16.17a1.68,1.68,0,0,0-.37.6.64.64,0,0,0,.45.78.65.65,0,0,0,.78-.45c-.05.14,0,0,0,0l.07-.07.18-.2a1.21,1.21,0,0,0,.36-.76c0-.59-.52-1-.93-1.34a4.82,4.82,0,0,0-1.4-.89,1.47,1.47,0,0,0-1.66.15,1.44,1.44,0,0,0,0,1.71,2.38,2.38,0,0,0,1.35,1,4.37,4.37,0,0,0,1.87,0,1.63,1.63,0,0,0,1.3-.81c.34-.73-.16-1.36-.48-2a4.63,4.63,0,0,1-.46-1.71.66.66,0,0,0-.47-.61.65.65,0,0,0-.72.29,4,4,0,0,1-1,1.28.81.81,0,0,0-.13.11s.07,0,.07,0-.07-.09,0,0,0,0,0-.07,0,0,0,0a.73.73,0,0,1,.11-.29.92.92,0,0,1,.19-.24s.07-.08,0,0l0,0h0s.11,0,0,0,.06.05,0,0,.07.07,0,0c.08.1,0,0,0,0s0,0,0,0,.06-.07,0,0,0,0,0,0-.11,0,0,0,.08,0,0,0c.07,0,0-.05,0,0s0-.1,0,0,0,0,0-.09a.63.63,0,0,0-.63-.63.66.66,0,0,0-.64.63Z"/><path d="M81.43,38.45a1.28,1.28,0,1,0,1.95-1,1.53,1.53,0,0,0-2.14.91,1.56,1.56,0,0,0,0,1.41,1.27,1.27,0,0,0,1.09.68,2,2,0,0,0,1.36-.81,5.68,5.68,0,0,0,.84-1.21l-1.19-.32a6.23,6.23,0,0,0,.77,2.59,4.77,4.77,0,0,1,.25.43s0,.17,0,.14,0,0,0,0-.08.07,0,0-.14.06-.07,0a1.39,1.39,0,0,1-.19.06,3.6,3.6,0,0,1-.56.08,2.29,2.29,0,0,1-1.06-.11A.87.87,0,0,1,82,40.8l0-.1c0,.09,0,0,0,0s-.16.18-.17.23l.12,0,.29.08a3.51,3.51,0,0,1,.8.49l.51.46a2.18,2.18,0,0,0,.22.21c.07,0,0-.05,0-.08a.33.33,0,0,1,0-.17c0-.09,0,0,0,0s.06-.07,0,0l-.17.17a1.66,1.66,0,0,0-.36.6.64.64,0,0,0,.44.78.65.65,0,0,0,.79-.45c-.05.14,0,0,0,0l.06-.07.19-.2a1.21,1.21,0,0,0,.36-.76c0-.59-.53-1-.93-1.34a4.74,4.74,0,0,0-1.41-.89A1.46,1.46,0,0,0,81,40a1.44,1.44,0,0,0,0,1.71,2.44,2.44,0,0,0,1.36,1,4.37,4.37,0,0,0,1.87,0,1.64,1.64,0,0,0,1.3-.81c.33-.73-.16-1.36-.48-2a4.84,4.84,0,0,1-.47-1.71.65.65,0,0,0-.46-.61.65.65,0,0,0-.72.29,3.84,3.84,0,0,1-1,1.28s-.12.09-.12.11.07,0,.07,0-.07-.09,0,0,0,0,0-.07,0,0,0,0a.61.61,0,0,1,.11-.29.92.92,0,0,1,.19-.24s.07-.08,0,0l0,0h0s.11,0,0,0,.07.05,0,0,.07.07,0,0c.08.1,0,0,0,0s0,0,0,0,.06-.07,0,0,0,0,0,0-.1,0,0,0,.08,0,0,0c.07,0,0-.05,0,0s0-.1,0,0,0,0,0-.09a.63.63,0,0,0-.63-.63.66.66,0,0,0-.64.63Z"/><path class="cls-2" d="M47.48,38.33S46,21.24,63.32,28C63.32,28,54.38,38.33,47.48,38.33Z"/><path class="cls-2" d="M78.26,28.16s14.43-9.29,16.55,9.17C94.81,37.33,81.48,34.26,78.26,28.16Z"/></svg>